<svg width="56" height="55" viewBox="0 0 56 55" fill="none" xmlns="http://www.w3.org/2000/svg">
<circle cx="27.5061" cy="27.0027" r="21" fill="#2ED2AD"/>
<path d="M23.7092 54.659C19.9065 54.0575 15.8889 52.4461 12.5374 50.2118C10.4749 48.8368 6.67212 45.034 5.29712 42.9715C3.2561 39.9207 1.79517 36.4832 1.02173 32.8739C0.463135 30.3172 0.463135 24.6883 1.02173 22.1317C2.18188 16.7176 4.5022 12.3778 8.32642 8.44614C19.1545 -2.74722 36.7932 -2.79019 47.5999 8.33872C50.7795 11.6258 52.6917 14.7411 54.1096 18.9735C55.9788 24.6239 55.9143 31.1551 53.8948 36.7411C52.5198 40.5438 50.5862 43.5946 47.5999 46.6668C43.7971 50.5985 39.2209 53.1551 33.8069 54.3797C31.2717 54.9598 26.3948 55.0887 23.7092 54.659ZM43.0022 38.4813C42.9807 38.3739 40.9182 35.7528 38.469 32.659L34.0002 27.0301L33.4417 27.3954C33.1409 27.5887 31.8088 28.4266 30.4553 29.2645L28.0061 30.7684L24.9768 28.9422L21.926 27.0946L17.6292 32.5086C15.2659 35.495 13.2034 38.0946 13.01 38.3094C12.7092 38.6532 13.4182 38.6747 27.8772 38.6747C36.9651 38.6747 43.0452 38.5887 43.0022 38.4813ZM14.3635 34.1629C15.5237 32.6805 17.3928 30.3387 18.51 28.9422C20.2288 26.7938 20.5081 26.3641 20.2502 26.1278C20.0354 25.9129 13.8909 22.1102 11.8499 20.9071C11.7424 20.8641 11.678 24.5594 11.678 29.1571C11.678 36.0965 11.7209 37.4286 11.9573 37.1707C12.1292 36.9989 13.2034 35.6454 14.3635 34.1629ZM44.2483 20.9071C44.2053 20.8641 42.1858 22.0457 39.7581 23.5282L35.3323 26.2567L37.76 29.3075C39.0706 30.9618 41.0901 33.4969 42.2073 34.9149L44.2268 37.4715L44.2913 29.243C44.3127 24.7098 44.2913 20.95 44.2483 20.9071ZM36.0842 24.0008L44.2268 18.995L44.2913 17.6629L44.3557 16.3309H28.0061H11.678V17.6844V19.0165L19.7991 24.0008C24.2463 26.7293 27.8987 28.9852 27.9202 28.9852C27.9417 29.0067 31.6155 26.7508 36.0842 24.0008Z" fill="white"/>
<path d="M23.5698 54.9493C23.511 54.9225 23.3239 54.9011 23.1582 54.9011C22.9765 54.8958 22.7039 54.8424 22.4847 54.7622C22.2816 54.6873 21.9983 54.6125 21.854 54.5965C21.7097 54.5751 21.3302 54.4949 21.0042 54.4094C20.6835 54.3239 20.3093 54.2277 20.1757 54.1956C19.6626 54.0727 19.0105 53.8642 18.7058 53.7199C18.2194 53.4954 18.0217 53.4152 17.8774 53.3725C17.8025 53.3511 17.7223 53.3137 17.6903 53.2923C17.6636 53.2709 17.4765 53.2014 17.2841 53.1373C16.9099 53.0144 14.5367 51.8438 14.2588 51.646C14.1679 51.5819 14.0771 51.5285 14.0557 51.5285C14.0396 51.5285 13.9167 51.459 13.7884 51.3681C13.6601 51.2826 13.5372 51.2078 13.5212 51.2078C13.4891 51.2078 13.1363 50.9619 12.5537 50.5236C12.4201 50.4274 12.2384 50.3098 12.1422 50.2563C11.8803 50.1174 11.6291 49.9303 11.2923 49.631C11.1213 49.4813 10.9182 49.321 10.838 49.2836C10.6082 49.166 9.98814 48.5887 8.29912 46.9318C7.31564 45.9643 6.6582 45.2748 6.49251 45.0343C6.35354 44.8312 6.17181 44.6013 6.09163 44.5265C5.9099 44.3608 5.37006 43.6499 5.37006 43.5804C5.37006 43.5484 5.27919 43.4201 5.16695 43.2918C4.90504 42.9925 4.53089 42.4366 4.45606 42.2442C4.42399 42.164 4.35451 42.0464 4.30106 41.9876C4.18881 41.8647 3.95898 41.4799 3.84139 41.218C3.79328 41.1164 3.665 40.8973 3.5581 40.7369C3.36569 40.4483 2.64411 39.0372 2.64411 38.9463C2.64411 38.9036 2.6067 38.8127 2.32341 38.1927C2.07754 37.6475 2.01875 37.5085 1.92254 37.2039C1.86909 37.0435 1.78357 36.8351 1.73546 36.7442C1.58046 36.4716 1.25441 35.3224 1.25441 35.0498C1.25441 34.9857 1.217 34.8628 1.17424 34.7772C1.13148 34.6971 1.04596 34.4245 0.987162 34.1839C0.928367 33.9434 0.842847 33.6708 0.800087 33.5906C0.751982 33.4891 0.719912 33.286 0.719912 33.0187C0.719912 32.6767 0.698532 32.5698 0.613012 32.4629C0.506112 32.3292 0.506112 32.2437 0.506112 27.631C0.506112 22.7082 0.500767 22.7991 0.757327 21.9867C0.832157 21.7408 0.912332 21.356 0.939057 21.1315C0.981817 20.6611 1.09406 20.2068 1.25441 19.8594C1.31321 19.7311 1.36131 19.5707 1.36131 19.5012C1.36131 19.4318 1.45752 19.0843 1.57511 18.7369C1.6927 18.3895 1.78891 18.0634 1.78891 18.0153C1.78891 17.9726 1.86374 17.7908 1.94926 17.6145C2.03478 17.4381 2.10961 17.2724 2.10961 17.2457C2.10961 17.2189 2.16841 17.0746 2.23789 16.925C2.30738 16.7753 2.441 16.4867 2.53721 16.2782C2.94878 15.3856 3.61156 14.0868 3.86277 13.7073C3.95363 13.5576 4.03381 13.4133 4.03381 13.3812C4.03381 13.3491 4.10329 13.2369 4.19416 13.1247C4.27968 13.0178 4.4133 12.804 4.48813 12.649C4.56296 12.4993 4.71797 12.2588 4.83556 12.1091C4.9478 11.9648 5.08677 11.7563 5.13488 11.6548C5.18833 11.5532 5.3273 11.3501 5.44489 11.2112C5.56782 11.0668 5.77628 10.8156 5.92059 10.6499C7.14994 9.17471 9.67813 6.64652 11.1533 5.41717C11.319 5.27286 11.5703 5.06441 11.7146 4.94147C11.8535 4.82388 12.0567 4.68491 12.1582 4.63146C12.2598 4.58336 12.4682 4.44439 12.6125 4.33214C12.7622 4.21455 13.0027 4.05955 13.1524 3.98472C13.3074 3.90989 13.5212 3.77626 13.6281 3.69074C13.7403 3.59988 13.8526 3.53039 13.8846 3.53039C13.9167 3.53039 14.061 3.45022 14.2107 3.35401C14.5902 3.10814 15.889 2.44536 16.7816 2.03379C16.9901 1.93758 17.2787 1.80396 17.4284 1.73447C17.578 1.66499 17.7223 1.60619 17.7491 1.60619C17.7758 1.60619 17.9415 1.53136 18.1179 1.44584C18.2943 1.36032 18.476 1.28549 18.5188 1.28549C18.5669 1.28549 18.8929 1.18928 19.2403 1.07169C19.5878 0.954103 19.9352 0.857893 20.0047 0.857893C20.0741 0.857893 20.2345 0.809788 20.3628 0.750993C20.7102 0.590644 21.1645 0.478399 21.6349 0.435639C21.8594 0.408914 22.2442 0.328739 22.4901 0.253909C23.3025 -0.00265089 23.2117 0.0026941 28.1344 0.0026941C32.7471 0.0026941 32.8327 0.0026941 32.9663 0.109594C33.0732 0.195114 33.1801 0.216494 33.5222 0.216494C33.7894 0.216494 33.9925 0.248564 34.0941 0.296669C34.1742 0.339429 34.4468 0.424949 34.6874 0.483744C34.9279 0.542539 35.2005 0.628059 35.2807 0.670819C35.3662 0.713579 35.4891 0.750993 35.5533 0.750993C35.8258 0.750993 36.975 1.07704 37.2476 1.23204C37.3385 1.28015 37.5469 1.36567 37.7073 1.41912C38.012 1.51533 38.1509 1.57412 38.6961 1.81999C39.3161 2.10328 39.407 2.14069 39.4498 2.14069C39.5406 2.14069 40.9517 2.86227 41.2403 3.05469C41.4007 3.16159 41.6198 3.28987 41.7214 3.33797C41.9833 3.45556 42.3681 3.6854 42.4911 3.79764C42.5499 3.85109 42.6674 3.92058 42.7476 3.95265C42.94 4.02748 43.4959 4.40163 43.7952 4.66353C43.9235 4.77578 44.0518 4.86664 44.0839 4.86664C44.1534 4.86664 44.8642 5.40648 45.0299 5.58821C45.1048 5.66839 45.3346 5.85012 45.5377 5.98909C45.7782 6.15478 46.4677 6.81222 47.4352 7.7957C49.0921 9.48472 49.6694 10.1047 49.787 10.3346C49.8244 10.4147 49.9847 10.6179 50.1344 10.7889C50.4337 11.1256 50.6208 11.3768 50.7598 11.6388C50.8132 11.735 50.9308 11.9167 51.027 12.0503C51.4653 12.6329 51.7112 12.9857 51.7112 13.0178C51.7112 13.0338 51.786 13.1567 51.8715 13.285C51.9571 13.4133 52.0319 13.5362 52.0319 13.5523C52.0319 13.5736 52.0853 13.6645 52.1495 13.7554C52.3472 14.0333 53.5178 16.4065 53.6407 16.7806C53.7049 16.9731 53.7744 17.1601 53.7957 17.1869C53.8171 17.2189 53.8545 17.2991 53.8759 17.3739C53.9187 17.5182 53.9988 17.716 54.2233 18.2024C54.3676 18.5071 54.5761 19.1592 54.699 19.6723C54.7311 19.8059 54.8273 20.1801 54.9128 20.5008C54.9984 20.8268 55.0785 21.2116 55.0999 21.356C55.1159 21.5056 55.1854 21.7568 55.2442 21.9172C55.3084 22.0775 55.3832 22.4036 55.4153 22.6388C55.442 22.8739 55.4741 24.9318 55.4847 27.2087C55.5061 31.613 55.5115 31.4954 55.2442 32.9546C55.1854 33.2806 55.0518 33.8793 54.9449 34.2855C54.8433 34.6971 54.7578 35.0766 54.7578 35.1353C54.7578 35.1888 54.7204 35.3117 54.6777 35.4026C54.5494 35.6859 54.1645 36.787 54.1218 37.0168C54.0951 37.1344 54.0149 37.3375 53.9454 37.4711C53.8706 37.6047 53.769 37.8346 53.7156 37.9896C53.6675 38.1446 53.5712 38.3851 53.4964 38.5241C53.4269 38.663 53.3681 38.802 53.3681 38.8341C53.3681 38.9089 52.5717 40.5071 52.406 40.7583C52.3312 40.8759 52.235 41.0469 52.1922 41.1324C52.1495 41.2233 52.0372 41.405 51.941 41.5387C51.8448 41.6776 51.7646 41.8059 51.7646 41.8273C51.7646 41.9502 50.4337 43.8477 49.6534 44.8419C48.9211 45.7772 46.2593 48.439 45.3506 49.1499C44.3084 49.9624 42.4536 51.2612 42.3307 51.2612C42.3093 51.2612 42.181 51.3414 42.0421 51.4376C41.9085 51.5338 41.7267 51.646 41.6359 51.6888C41.5503 51.7316 41.3793 51.8278 41.2617 51.9026C41.0105 52.0683 39.4123 52.8647 39.3375 52.8647C39.3054 52.8647 39.1665 52.9235 39.0275 52.993C38.8885 53.0678 38.648 53.164 38.493 53.2121C38.338 53.2656 38.1082 53.3671 37.9745 53.442C37.8409 53.5114 37.6378 53.5916 37.5202 53.6183C37.2904 53.6611 36.1893 54.0459 35.906 54.1742C35.8152 54.217 35.6922 54.2544 35.6388 54.2544C35.58 54.2544 35.2005 54.3399 34.7889 54.4415C34.0406 54.6339 33.2816 54.7836 32.389 54.9225C32.0042 54.9813 31.0635 54.9974 27.7923 54.9974C25.5314 54.9974 23.6286 54.976 23.5698 54.9493ZM29.4493 52.7578C37.424 52.2874 44.6398 48.1397 49.0868 41.4692C52.6786 36.0814 54.0576 29.4162 52.9085 23.0396C51.2515 13.8623 44.6665 6.32582 35.7831 3.43418C30.7748 1.80396 25.2374 1.80396 20.2292 3.43418C13.0936 5.75391 7.31029 11.1524 4.52555 18.0955C3.2962 21.1635 2.72963 24.1353 2.72963 27.5027C2.72963 29.336 2.84722 30.6242 3.15723 32.2597C4.89435 41.2981 11.4473 48.717 20.2292 51.5712C23.1849 52.5333 26.3438 52.9395 29.4493 52.7578Z" fill="#2ED2AD"/>
</svg>
