<svg width="55" height="55" viewBox="0 0 55 55" fill="none" xmlns="http://www.w3.org/2000/svg">
<circle cx="27.495" cy="27.495" r="27.495" fill="white"/>
<path d="M23.0698 54.9493C23.011 54.9225 22.8239 54.9011 22.6582 54.9011C22.4765 54.8958 22.2039 54.8424 21.9847 54.7622C21.7816 54.6873 21.4983 54.6125 21.354 54.5965C21.2097 54.5751 20.8302 54.4949 20.5042 54.4094C20.1835 54.3239 19.8093 54.2277 19.6757 54.1956C19.1626 54.0727 18.5105 53.8642 18.2058 53.7199C17.7194 53.4954 17.5217 53.4152 17.3774 53.3725C17.3025 53.3511 17.2223 53.3137 17.1903 53.2923C17.1636 53.2709 16.9765 53.2014 16.7841 53.1373C16.4099 53.0144 14.0367 51.8438 13.7588 51.646C13.6679 51.5819 13.5771 51.5285 13.5557 51.5285C13.5396 51.5285 13.4167 51.459 13.2884 51.3681C13.1601 51.2826 13.0372 51.2078 13.0212 51.2078C12.9891 51.2078 12.6363 50.9619 12.0537 50.5236C11.9201 50.4274 11.7384 50.3098 11.6422 50.2563C11.3803 50.1174 11.1291 49.9303 10.7923 49.631C10.6213 49.4813 10.4182 49.321 10.338 49.2836C10.1082 49.166 9.48814 48.5887 7.79912 46.9318C6.81564 45.9643 6.1582 45.2748 5.99251 45.0343C5.85354 44.8312 5.67181 44.6013 5.59163 44.5265C5.4099 44.3608 4.87006 43.6499 4.87006 43.5804C4.87006 43.5484 4.77919 43.4201 4.66695 43.2918C4.40504 42.9925 4.03089 42.4366 3.95606 42.2442C3.92399 42.164 3.85451 42.0464 3.80106 41.9876C3.68881 41.8647 3.45898 41.4799 3.34139 41.218C3.29328 41.1164 3.16501 40.8973 3.05811 40.7369C2.86569 40.4483 2.14411 39.0372 2.14411 38.9463C2.14411 38.9036 2.1067 38.8127 1.82341 38.1927C1.57754 37.6475 1.51875 37.5085 1.42254 37.2039C1.36909 37.0435 1.28357 36.8351 1.23546 36.7442C1.08046 36.4716 0.754412 35.3224 0.754412 35.0498C0.754412 34.9857 0.716997 34.8628 0.674237 34.7772C0.631477 34.6971 0.545957 34.4245 0.487162 34.1839C0.428367 33.9434 0.342847 33.6708 0.300087 33.5906C0.251982 33.4891 0.219912 33.286 0.219912 33.0187C0.219912 32.6767 0.198532 32.5698 0.113012 32.4629C0.00611207 32.3292 0.00611207 32.2437 0.00611207 27.631C0.00611207 22.7082 0.000767062 22.7991 0.257327 21.9867C0.332157 21.7408 0.412332 21.356 0.439057 21.1315C0.481817 20.6611 0.594062 20.2068 0.754412 19.8594C0.813207 19.7311 0.861312 19.5707 0.861312 19.5012C0.861312 19.4318 0.957521 19.0843 1.07511 18.7369C1.1927 18.3895 1.28891 18.0634 1.28891 18.0153C1.28891 17.9726 1.36374 17.7908 1.44926 17.6145C1.53478 17.4381 1.60961 17.2724 1.60961 17.2457C1.60961 17.2189 1.66841 17.0746 1.73789 16.925C1.80738 16.7753 1.941 16.4867 2.03721 16.2782C2.44878 15.3856 3.11156 14.0868 3.36277 13.7073C3.45363 13.5576 3.53381 13.4133 3.53381 13.3812C3.53381 13.3491 3.60329 13.2369 3.69416 13.1247C3.77968 13.0178 3.9133 12.804 3.98813 12.649C4.06296 12.4993 4.21797 12.2588 4.33556 12.1091C4.4478 11.9648 4.58677 11.7563 4.63488 11.6548C4.68833 11.5532 4.8273 11.3501 4.94489 11.2112C5.06782 11.0668 5.27628 10.8156 5.42059 10.6499C6.64994 9.17471 9.17813 6.64652 10.6533 5.41717C10.819 5.27286 11.0703 5.06441 11.2146 4.94147C11.3535 4.82388 11.5567 4.68491 11.6582 4.63146C11.7598 4.58336 11.9682 4.44439 12.1125 4.33214C12.2622 4.21455 12.5027 4.05955 12.6524 3.98472C12.8074 3.90989 13.0212 3.77626 13.1281 3.69074C13.2403 3.59988 13.3526 3.53039 13.3846 3.53039C13.4167 3.53039 13.561 3.45022 13.7107 3.35401C14.0902 3.10814 15.389 2.44536 16.2816 2.03379C16.4901 1.93758 16.7787 1.80396 16.9284 1.73447C17.078 1.66499 17.2223 1.60619 17.2491 1.60619C17.2758 1.60619 17.4415 1.53136 17.6179 1.44584C17.7943 1.36032 17.976 1.28549 18.0188 1.28549C18.0669 1.28549 18.3929 1.18928 18.7403 1.07169C19.0878 0.954103 19.4352 0.857893 19.5047 0.857893C19.5741 0.857893 19.7345 0.809788 19.8628 0.750994C20.2102 0.590644 20.6645 0.478399 21.1349 0.435639C21.3594 0.408914 21.7442 0.328739 21.9901 0.253909C22.8025 -0.00265091 22.7117 0.0026941 27.6344 0.0026941C32.2471 0.0026941 32.3327 0.0026941 32.4663 0.109594C32.5732 0.195114 32.6801 0.216494 33.0222 0.216494C33.2894 0.216494 33.4925 0.248564 33.5941 0.296669C33.6742 0.339429 33.9468 0.424949 34.1874 0.483744C34.4279 0.542539 34.7005 0.628059 34.7807 0.670819C34.8662 0.713579 34.9891 0.750994 35.0533 0.750994C35.3258 0.750994 36.475 1.07704 36.7476 1.23204C36.8385 1.28015 37.0469 1.36567 37.2073 1.41912C37.512 1.51533 37.6509 1.57412 38.1961 1.81999C38.8161 2.10328 38.907 2.14069 38.9498 2.14069C39.0406 2.14069 40.4517 2.86227 40.7403 3.05469C40.9007 3.16159 41.1198 3.28987 41.2214 3.33797C41.4833 3.45556 41.8681 3.6854 41.9911 3.79764C42.0499 3.85109 42.1674 3.92058 42.2476 3.95265C42.44 4.02748 42.9959 4.40163 43.2952 4.66353C43.4235 4.77578 43.5518 4.86664 43.5839 4.86664C43.6534 4.86664 44.3642 5.40648 44.5299 5.58821C44.6048 5.66839 44.8346 5.85012 45.0377 5.98909C45.2782 6.15478 45.9677 6.81222 46.9352 7.7957C48.5921 9.48472 49.1694 10.1047 49.287 10.3346C49.3244 10.4147 49.4847 10.6179 49.6344 10.7889C49.9337 11.1256 50.1208 11.3768 50.2598 11.6388C50.3132 11.735 50.4308 11.9167 50.527 12.0503C50.9653 12.6329 51.2112 12.9857 51.2112 13.0178C51.2112 13.0338 51.286 13.1567 51.3715 13.285C51.4571 13.4133 51.5319 13.5362 51.5319 13.5523C51.5319 13.5736 51.5853 13.6645 51.6495 13.7554C51.8472 14.0333 53.0178 16.4065 53.1407 16.7806C53.2049 16.9731 53.2744 17.1601 53.2957 17.1869C53.3171 17.2189 53.3545 17.2991 53.3759 17.3739C53.4187 17.5182 53.4988 17.716 53.7233 18.2024C53.8676 18.5071 54.0761 19.1592 54.199 19.6723C54.2311 19.8059 54.3273 20.1801 54.4128 20.5008C54.4984 20.8268 54.5785 21.2116 54.5999 21.356C54.6159 21.5056 54.6854 21.7568 54.7442 21.9172C54.8084 22.0775 54.8832 22.4036 54.9153 22.6388C54.942 22.8739 54.9741 24.9318 54.9847 27.2087C55.0061 31.613 55.0115 31.4954 54.7442 32.9546C54.6854 33.2806 54.5518 33.8793 54.4449 34.2855C54.3434 34.6971 54.2578 35.0766 54.2578 35.1354C54.2578 35.1888 54.2204 35.3117 54.1777 35.4026C54.0494 35.6859 53.6645 36.787 53.6218 37.0168C53.5951 37.1344 53.5149 37.3375 53.4454 37.4711C53.3706 37.6047 53.269 37.8346 53.2156 37.9896C53.1675 38.1446 53.0712 38.3851 52.9964 38.5241C52.9269 38.663 52.8681 38.802 52.8681 38.8341C52.8681 38.9089 52.0717 40.5071 51.906 40.7583C51.8312 40.8759 51.735 41.0469 51.6922 41.1324C51.6495 41.2233 51.5372 41.405 51.441 41.5387C51.3448 41.6776 51.2646 41.8059 51.2646 41.8273C51.2646 41.9502 49.9337 43.8477 49.1534 44.8419C48.4211 45.7772 45.7593 48.439 44.8506 49.1499C43.8084 49.9624 41.9536 51.2612 41.8307 51.2612C41.8093 51.2612 41.6811 51.3414 41.5421 51.4376C41.4085 51.5338 41.2267 51.646 41.1359 51.6888C41.0503 51.7316 40.8793 51.8278 40.7617 51.9026C40.5105 52.0683 38.9123 52.8647 38.8375 52.8647C38.8054 52.8647 38.6665 52.9235 38.5275 52.993C38.3885 53.0678 38.148 53.164 37.993 53.2121C37.838 53.2656 37.6082 53.3671 37.4745 53.442C37.3409 53.5114 37.1378 53.5916 37.0202 53.6183C36.7904 53.6611 35.6893 54.0459 35.406 54.1742C35.3152 54.217 35.1922 54.2544 35.1388 54.2544C35.08 54.2544 34.7005 54.3399 34.2889 54.4415C33.5406 54.6339 32.7816 54.7836 31.889 54.9225C31.5042 54.9813 30.5635 54.9974 27.2923 54.9974C25.0314 54.9974 23.1286 54.976 23.0698 54.9493ZM28.9493 52.7578C36.924 52.2874 44.1398 48.1397 48.5868 41.4692C52.1786 36.0814 53.5576 29.4162 52.4085 23.0396C50.7515 13.8623 44.1665 6.32582 35.2831 3.43418C30.2748 1.80396 24.7374 1.80396 19.7292 3.43418C12.5936 5.75391 6.81029 11.1524 4.02555 18.0955C2.7962 21.1635 2.22963 24.1353 2.22963 27.5027C2.22963 29.336 2.34722 30.6242 2.65723 32.2597C4.39435 41.2981 10.9473 48.717 19.7292 51.5712C22.6849 52.5333 25.8438 52.9395 28.9493 52.7578Z" fill="#2ED2AD"/>
<path d="M30.3391 45.0129C29.222 44.6548 28.7784 44.4731 28.0461 44.0669C26.1059 42.9818 24.3206 41.3677 22.049 38.647C20.4241 36.7015 18.5801 34.0343 17.5753 32.1796C16.1107 29.4697 14.9829 24.5844 14.6462 19.4906C14.6141 18.9935 14.5874 17.9459 14.5821 17.1655C14.5714 16.011 14.5874 15.6475 14.6676 15.236C14.9081 13.9318 15.3892 12.9643 16.2444 12.0717C17.4309 10.8317 18.997 10.0834 21.1457 9.73597C22.3483 9.53821 22.2254 9.54355 22.2575 9.71459C22.3109 9.97115 22.5835 19.6884 22.5461 19.8434C22.5194 19.9503 22.3858 20.0732 22.0544 20.287C21.0869 20.923 20.6379 21.7408 20.6379 22.8526C20.6379 23.6383 20.7341 23.8895 22.0811 26.5941C24.1549 30.7632 26.5762 35.1407 27.3192 36.0708C27.843 36.7228 28.3775 36.9954 29.2167 37.0329C29.8206 37.0596 30.2001 36.9794 30.8148 36.7122C31.1034 36.5892 31.2103 36.5625 31.3012 36.6053C31.3653 36.6373 32.723 37.6903 34.3265 38.9517C35.9246 40.2131 37.7366 41.6349 38.3459 42.1159C38.9606 42.597 39.4416 43.0086 39.4149 43.0353C39.324 43.1208 37.6938 43.9386 37.2876 44.0989C37.0524 44.1952 36.1545 44.5052 35.2886 44.7991L33.7171 45.3283L32.5092 45.3229H31.3012L30.3391 45.0129Z" fill="#2ED2AD"/>
<path d="M36.1224 39.1174C33.8134 37.2841 31.9212 35.7768 31.9159 35.7608C31.9159 35.7448 32.445 35.4615 33.0918 35.1301C34.1608 34.5795 34.2891 34.5314 34.4708 34.5635C34.8129 34.6277 35.6093 35.0606 36.2453 35.5363C37.5816 36.5305 40.6282 38.925 40.7672 39.0907C41.0612 39.4381 41.1414 39.8978 41.0024 40.4163C40.8688 40.908 40.4037 42.3619 40.3663 42.4046C40.3449 42.426 38.4368 40.9454 36.1224 39.1174Z" fill="#2ED2AD"/>
<path d="M23.583 19.7312C23.5242 19.6724 23.4654 19.5227 23.4494 19.3944C23.4226 19.186 23.2035 10.6821 23.2035 9.90705V9.57031H23.5242C23.8182 9.57031 23.9251 9.60773 24.668 9.97119C25.566 10.4041 25.876 10.6607 25.9775 11.0509C26.0096 11.1631 26.0577 12.7613 26.0898 14.6908C26.1539 18.5071 26.1753 18.2185 25.7905 18.6835C25.3736 19.1806 24.7268 19.5975 24.1282 19.7525C23.738 19.8541 23.7059 19.8541 23.583 19.7312Z" fill="#2ED2AD"/>
</svg>
