<svg width="19" height="19" viewBox="0 0 19 19" fill="none" xmlns="http://www.w3.org/2000/svg">
<path d="M5.99178 15.6925L6.64529 16.0418C7.65804 16.5833 8.78902 16.8657 9.93742 16.864L9.94044 16.864C13.8066 16.864 16.9404 13.7301 16.9404 9.86401C16.9404 5.99788 13.8066 2.86401 9.94044 2.86401C6.07431 2.86401 2.94044 5.99788 2.94044 9.86401V9.86702C2.93871 11.0154 3.22115 12.1464 3.7626 13.1592L4.11198 13.8127L3.57476 16.2297L5.99178 15.6925ZM0.94044 18.864L1.99884 14.1021C1.30182 12.7984 0.938214 11.3424 0.94044 9.86401C0.94044 4.89331 4.96974 0.864014 9.94044 0.864014C14.9111 0.864014 18.9404 4.89331 18.9404 9.86401C18.9404 14.8347 14.9111 18.864 9.94044 18.864C8.46205 18.8662 7.00609 18.5026 5.70234 17.8056L0.94044 18.864Z" fill="white"/>
</svg>
