<svg width="20" height="21" viewBox="0 0 20 21" fill="none" xmlns="http://www.w3.org/2000/svg">
<path d="M16.4378 20.8947C15.3558 20.9072 14.3302 20.4128 13.6661 19.5584C13.002 18.7041 12.7758 17.5882 13.0548 16.5427L6.79484 12.9647C5.71312 13.9557 4.12752 14.1655 2.82532 13.4898C1.52313 12.8141 0.78171 11.3969 0.969203 9.94188C1.1567 8.48685 2.23316 7.30391 3.66411 6.98042C5.09506 6.65693 6.57569 7.26179 7.37084 8.49467L13.0538 5.24567C12.9803 4.96786 12.9413 4.68203 12.9378 4.39467C12.9235 2.72139 14.0856 1.26782 15.721 0.913496C17.3564 0.559176 19.016 1.40142 19.6955 2.93059C20.375 4.45976 19.8878 6.2559 18.5288 7.23218C17.1698 8.20846 15.3121 8.09676 14.0798 6.96467L7.92884 10.4797C7.92274 10.739 7.8865 10.9967 7.82084 11.2477L14.0798 14.8247C15.2321 13.7672 16.9466 13.604 18.2777 14.425C19.6088 15.246 20.2325 16.8514 19.8047 18.3557C19.3769 19.86 18.0018 20.897 16.4378 20.8947ZM16.4378 15.8947C15.6094 15.8947 14.9378 16.5662 14.9378 17.3947C14.9378 18.2231 15.6094 18.8947 16.4378 18.8947C17.2663 18.8947 17.9378 18.2231 17.9378 17.3947C17.9378 16.5662 17.2663 15.8947 16.4378 15.8947ZM4.43784 8.89467C3.60941 8.89467 2.93784 9.56625 2.93784 10.3947C2.93784 11.2231 3.60941 11.8947 4.43784 11.8947C5.26626 11.8947 5.93784 11.2231 5.93784 10.3947C5.93784 9.56625 5.26626 8.89467 4.43784 8.89467ZM16.4378 2.89467C15.6094 2.89467 14.9378 3.56625 14.9378 4.39467C14.9378 5.2231 15.6094 5.89467 16.4378 5.89467C17.2663 5.89467 17.9378 5.2231 17.9378 4.39467C17.9378 3.56625 17.2663 2.89467 16.4378 2.89467Z" fill="white"/>
</svg>
