<svg width="34" height="30" viewBox="0 0 34 30" fill="none" xmlns="http://www.w3.org/2000/svg">
<path d="M15.8662 0.832025C16.2391 -0.244021 17.7609 -0.244018 18.1338 0.832029L21.2106 9.70944C21.378 10.1925 21.8331 10.5165 22.3444 10.5165H32.1277C33.3089 10.5165 33.7795 12.0433 32.8033 12.7083L25.0245 18.0067C24.5765 18.3118 24.3887 18.8793 24.5662 19.3914L27.5683 28.0537C27.9468 29.1458 26.7142 30.0891 25.759 29.4384L17.6755 23.9325C17.268 23.6549 16.732 23.6549 16.3245 23.9325L8.24103 29.4384C7.28576 30.0891 6.05316 29.1458 6.43166 28.0537L9.43383 19.3914C9.61132 18.8793 9.42349 18.3118 8.97554 18.0067L1.19673 12.7083C0.220533 12.0433 0.691135 10.5165 1.87226 10.5165H11.6556C12.1669 10.5165 12.622 10.1925 12.7894 9.70944L15.8662 0.832025Z" fill="#C0C9D0"/>
</svg>
