<svg width="768" height="132" xmlns="http://www.w3.org/2000/svg" fill="none">

 <g>
  <title>Layer 1</title>
  <path stroke="null" id="svg_1" fill="#212F3D" d="m-1,33.196l32.85333,16.314c30.8,16.314 96.50666,46.902 160.15999,57.098c63.65333,12.235 127.30666,4.078 193.01333,-22.432c63.65333,-26.509 127.30666,-73.4113 190.95999,-69.3329c65.70666,4.0785 129.35999,57.0979 160.15999,85.6469l32.85333,26.51l0,-208.00002l-32.85333,0c-30.8,0 -94.45333,0 -160.15999,0c-63.65333,0 -127.30666,0 -190.95999,0c-65.70666,0 -129.35999,0 -193.01333,0c-63.65333,0 -129.35999,0 -160.15999,0l-32.85333,0l0,114.19602z" clip-rule="evenodd" fill-rule="evenodd"/>
 </g>
</svg>